<?xml version="1.0" encoding="UTF-8" standalone="no" ?>
<!DOCTYPE svg PUBLIC "-//W3C//DTD SVG 1.1//EN" "http://www.w3.org/Graphics/SVG/1.1/DTD/svg11.dtd">
<svg xmlns="http://www.w3.org/2000/svg" xmlns:xlink="http://www.w3.org/1999/xlink" version="1.1" width="1080" height="1080" viewBox="0 0 1080 1080" xml:space="preserve">
<desc>Created with Fabric.js 5.2.4</desc>
<defs>
</defs>
<rect x="0" y="0" width="100%" height="100%" fill="transparent"></rect>
<g transform="matrix(1 0 0 1 540 540)" id="97a718a7-dddc-4b9c-9711-328729e43148"  >
<rect style="stroke: none; stroke-width: 1; stroke-dasharray: none; stroke-linecap: butt; stroke-dashoffset: 0; stroke-linejoin: miter; stroke-miterlimit: 4; fill: rgb(255,255,255); fill-rule: nonzero; opacity: 1; visibility: hidden;" vector-effect="non-scaling-stroke"  x="-540" y="-540" rx="0" ry="0" width="1080" height="1080" />
</g>
<g transform="matrix(1 0 0 1 540 540)" id="236f3adc-b8ff-4595-b026-56bf10a997e5"  >
</g>
<g transform="matrix(1 0 0 1 540 540)"  >
<g style="" vector-effect="non-scaling-stroke"   >
		<g transform="matrix(1 0 0 1 -1.26 0)"  >
<path style="stroke: none; stroke-width: 1; stroke-dasharray: none; stroke-linecap: butt; stroke-dashoffset: 0; stroke-linejoin: miter; stroke-miterlimit: 4; fill: rgb(0,29,244); fill-rule: nonzero; opacity: 1;" vector-effect="non-scaling-stroke"  transform=" translate(-62.72, -64)" d="M 62.71 17.39 C 36.71 17.39 15.600000000000001 37.480000000000004 15.600000000000001 62.26 C 15.630224433973058 73.3913444951902 19.924621304749984 84.08797136748373 27.599999999999998 92.15 L 27.520000000000003 99.73 L 27.410000000000004 110.61 L 36.89 105.26 L 41.82 102.48 C 48.35890916133539 105.56262553894236 55.50091229909225 107.1542914701689 62.730000000000004 107.14000000000001 C 88.73 107.14 109.84 87.05 109.84 62.26 C 109.84 37.47 88.73 17.39 62.71 17.39 Z" stroke-linecap="round" />
</g>
		<g transform="matrix(1 0 0 1 -5.51 18.78)"  >
<path style="stroke: none; stroke-width: 1; stroke-dasharray: none; stroke-linecap: butt; stroke-dashoffset: 0; stroke-linejoin: miter; stroke-miterlimit: 4; fill: rgb(0,29,244); fill-rule: nonzero; opacity: 1;" vector-effect="non-scaling-stroke"  transform=" translate(-58.47, -82.78)" d="M 18.4 77.5 C 18.83 77.13 19.24 76.78 19.66 76.44 C 23.46906806322294 73.19336410632854 28.158002633208003 71.15348611225933 33.129999999999995 70.58 C 37.02295606488388 70.21859973532446 40.94917829818678 70.58138538209771 44.709999999999994 71.64999999999999 C 49.613073701783215 73.04760988501708 54.40613238283488 74.80573322269713 59.05000000000001 76.91000000000001 C 64.30013720920931 79.25583131610509 69.67485905456448 81.31224663084969 75.14999999999998 83.07 C 80.40148195379649 84.71938468281462 85.90112882008556 85.43687707398588 91.4 85.19 C 93.69000000000001 85.05 95.94000000000001 84.50999999999999 98.21000000000001 84.19 C 98.31562213601543 84.14611081963382 98.43437786398458 84.14611081963382 98.54 84.19 L 92.54 87.03 C 87.43165814270894 89.54601682607256 82.13168450741159 91.65263095240527 76.69000000000001 93.33000000000001 C 72.47932032147627 94.61281000567277 68.09052991861233 95.21373669160337 63.690000000000005 95.11 C 58.8992984712467 94.88977253026182 54.2243135420959 93.56530754667371 50.030000000000015 91.24 C 46.207402485551924 89.03156994525429 42.58379227238456 86.49537738608453 39.20000000000001 83.66000000000001 C 37.400000000000006 82.27 35.56 80.91 33.64 79.66 C 29.29819765620841 76.95995439255952 24.039435276072176 76.15758652425009 19.08999999999999 77.44 L 18.58 77.55 C 18.58 77.55 18.51 77.55 18.4 77.5 Z" stroke-linecap="round" />
</g>
		<g transform="matrix(1 0 0 1 -2.95 5.01)"  >
<path style="stroke: none; stroke-width: 1; stroke-dasharray: none; stroke-linecap: butt; stroke-dashoffset: 0; stroke-linejoin: miter; stroke-miterlimit: 4; fill: rgb(0,29,244); fill-rule: nonzero; opacity: 1;" vector-effect="non-scaling-stroke"  transform=" translate(-61.04, -69.01)" d="M 112.83 76.51 C 107.91533348944449 78.58408927919447 102.76282374679693 80.04183975397221 97.49 80.85000000000002 C 92.88146159792116 81.47443996524228 88.19861271696581 81.27466550105113 83.66 80.26 C 78.40521645666536 78.9906707047258 73.26956023964682 77.27097865550917 68.30999999999999 75.11999999999999 C 62.56 72.76 56.87 70.25 51 68.35 C 46.678100848307096 66.90518145411895 42.206123899934056 65.95576699321154 37.66999999999999 65.52 C 31.323255530356363 64.98107893416625 24.936050723814244 65.85889264287283 18.96999999999999 68.08999999999999 C 15.9 69.2 13 70.58 10 71.84 C 9.77 71.94 9.54 72.06 9.25 72.2 C 9.271734593603398 72.1299136618458 9.301958947243188 72.06274843153516 9.34 72 C 12.653387489815346 68.38162868284026 16.390263968036916 65.17523422039496 20.469999999999953 62.45000000000002 C 26.798877280911277 58.31454070244668 34.309214734456816 56.368457003071455 41.84999999999997 56.91 C 46.59843914590928 57.26381585467657 51.27043049147659 58.304656031879375 55.72 59.99999999999999 C 61.53 62.21 67.28 64.59 73.02 67 C 79.88751701897348 70.04337503424192 86.986657473218 72.53459483566073 94.25 74.44999999999999 C 98.33766567191937 75.45175168194531 102.50835710685931 76.0776901236257 106.71000000000001 76.32000000000001 C 108.78 76.4 110.85 76.44 112.83 76.51 Z" stroke-linecap="round" />
</g>
		<g transform="matrix(1 0 0 1 3.56 -7.2)"  >
<path style="stroke: none; stroke-width: 1; stroke-dasharray: none; stroke-linecap: butt; stroke-dashoffset: 0; stroke-linejoin: miter; stroke-miterlimit: 4; fill: rgb(0,29,244); fill-rule: nonzero; opacity: 1;" vector-effect="non-scaling-stroke"  transform=" translate(-67.55, -56.8)" d="M 118.72 65.66 C 117.01 66.21 115.19 66.82 113.36 67.38 C 110.10231242723087 68.39303924955124 106.75283803873448 69.08303097358149 103.36000000000001 69.44 C 99.34945863961602 69.8403245440816 95.30105046981863 69.6142884212679 91.36 68.76999999999998 C 86.8092366946453 67.73865935659175 82.37113917525184 66.26152652183514 78.10999999999999 64.36 C 73.56 62.36 69.11 60.36 64.52 58.36 C 59.280824318514085 55.98487330225618 53.798480007478915 54.1876032406569 48.16999999999998 53.000000000000014 C 41.46510949115415 51.69197041218733 34.542627131753015 52.03517727185025 27.999999999999996 54 C 24.40055712868233 55.05602966960478 20.889734517770208 56.39348590233321 17.49999999999997 58.000000000000014 C 17.19 58.14 16.87 58.26 16.38 58.46 C 16.56 58.230000000000004 16.61 58.15 16.68 58.07 C 19.31606221245837 55.29011991697744 22.20892156778457 52.765564414759915 25.319999999999965 50.530000000000044 C 30.341710928075262 46.910785987288534 36.23034087850619 44.68228279573706 42.39000000000001 44.07000000000001 C 46.684336913144264 43.76036071965913 51.00024426850581 44.16930730540601 55.16000000000001 45.280000000000015 C 60.67336568992859 46.822268927766935 66.04596147507486 48.82946536057376 71.21999999999998 51.27999999999999 C 77.72 54.160000000000004 84.22 57.11 90.77 59.83 C 96.80130225952134 62.354817383744674 103.1448630382958 64.05674832439149 109.63 64.89000000000001 C 112.67 65.24 115.73 65.4 118.72 65.66 Z" stroke-linecap="round" />
</g>
		<g transform="matrix(1 0 0 1 5.94 -20.99)"  >
<path style="stroke: none; stroke-width: 1; stroke-dasharray: none; stroke-linecap: butt; stroke-dashoffset: 0; stroke-linejoin: miter; stroke-miterlimit: 4; fill: rgb(0,29,244); fill-rule: nonzero; opacity: 1;" vector-effect="non-scaling-stroke"  transform=" translate(-69.93, -43.01)" d="M 109.61 54.49 C 107.9202955583653 55.21040814367617 106.13505270922028 55.681981726469196 104.31 55.89 C 99.37621570893788 56.37349564979159 94.40131793328734 55.570759374357685 89.87 53.56 C 84.71000000000001 51.440000000000005 79.65 49.06 74.57000000000001 46.74 C 69.19255840774284 44.12299545273562 63.57694556052374 42.026767878281746 57.79999999999995 40.47999999999998 C 48.80578770470502 38.170255761639524 39.29614423981859 38.95215977986353 30.80000000000002 42.699999999999996 C 30.6241124227925 42.77389330929756 30.425887577207494 42.77389330929756 30.249999999999996 42.699999999999996 C 31.469999999999995 41.769999999999996 32.669999999999995 40.83 33.88999999999999 39.919999999999995 C 38.942655282271865 36.056018073069104 44.68993829680106 33.19765286442553 50.81999999999999 31.499999999999993 C 60.81646715476689 28.654722655311925 71.53009464749762 29.843131066871535 80.66000000000003 34.81 C 84.06188597756855 36.77005318122732 87.17497564732783 39.193214870121025 89.90999999999998 42.00999999999998 C 92.47999999999999 44.46 95 47.01 97.64999999999999 49.309999999999995 C 100.30620841089163 51.73204650597959 103.56803731118944 53.390603573927635 107.09 54.11 C 107.82 54.3 108.62 54.36 109.61 54.49 Z" stroke-linecap="round" />
</g>
</g>
</g>
<g transform="matrix(1 0 0 1 540 537.74)" style="" id="175a2703-ea35-4cc8-a242-82f6c33995d6"  >
		<text xml:space="preserve" font-family="Raleway" font-size="24" font-style="normal" font-weight="900" style="stroke: none; stroke-width: 1; stroke-dasharray: none; stroke-linecap: butt; stroke-dashoffset: 0; stroke-linejoin: miter; stroke-miterlimit: 4; fill: rgb(255,255,255); fill-rule: nonzero; opacity: 1; white-space: pre;" ><tspan x="-31.06" y="7.54" >AIMH</tspan></text>
</g>
<g transform="matrix(1 0 0 1 540 540)"  >
<g style="" vector-effect="non-scaling-stroke"   >
		<g transform="matrix(1 0 0 1 -1.37 0)"  >
<path style="stroke: none; stroke-width: 1; stroke-dasharray: none; stroke-linecap: butt; stroke-dashoffset: 0; stroke-linejoin: miter; stroke-miterlimit: 4; fill: rgb(11,0,244); fill-rule: nonzero; opacity: 1;" vector-effect="non-scaling-stroke"  transform=" translate(-58.66, -60)" d="M 58.66 11.27 C 31.449999999999996 11.27 9.399999999999999 32.269999999999996 9.399999999999999 58.17999999999999 C 9.426600159114084 69.81384756609607 13.906609710198733 80.99598003186246 21.920000000000016 89.43000000000002 L 21.840000000000003 97.35000000000001 L 21.730000000000004 108.73 L 31.640000000000004 103.14 L 36.790000000000006 100.23 C 43.62887747623455 103.45440752053963 51.099131709436236 105.11787977091423 58.66000000000001 105.10000000000002 C 85.86000000000001 105.10000000000001 107.91000000000001 84.10000000000001 107.91000000000001 58.18000000000001 C 107.91000000000001 32.260000000000005 85.86 11.27 58.66 11.27 Z" stroke-linecap="round" />
</g>
		<g transform="matrix(1 0 0 1 -5.8 19.64)"  >
<path style="stroke: none; stroke-width: 1; stroke-dasharray: none; stroke-linecap: butt; stroke-dashoffset: 0; stroke-linejoin: miter; stroke-miterlimit: 4; fill: rgb(11,0,244); fill-rule: nonzero; opacity: 1;" vector-effect="non-scaling-stroke"  transform=" translate(-54.22, -79.64)" d="M 12.32 74.11 L 13.64 73 C 17.627478468144055 69.61050013269696 22.531154827797955 67.48058534766629 27.729999999999986 66.88 C 31.797889467448428 66.50110686766061 35.90076982046972 66.88087761108078 39.82999999999999 68 C 44.95799498841003 69.45928102174561 49.9715548754445 71.29424394040026 54.82999999999993 73.49 C 60.3167479440198 75.94875321633752 65.93533505190628 78.10204417568796 71.66000000000003 79.94000000000001 C 77.15362873719222 81.66603558819267 82.90765890012415 82.41405950937381 88.66 82.14999999999999 C 91.05 82.00999999999999 93.39999999999999 81.44999999999999 95.78 81.07 C 95.89013158750085 81.03190199334962 96.00986841249916 81.03190199334962 96.12 81.07 L 89.86 84.07 C 84.51699094541003 86.70321885040784 78.97280652951504 88.90684824128527 73.27999999999999 90.66 C 68.89156159442139 92.00014194800532 64.31738352768018 92.63141227898731 59.730000000000004 92.53 C 54.726427944263335 92.30820246265938 49.84072585861182 90.93965846107632 45.449999999999996 88.53 C 41.4396788743726 86.22505676209803 37.63558751551348 83.57858687216175 34.07999999999998 80.61999999999999 C 32.2 79.16000000000001 30.280000000000005 77.74000000000001 28.270000000000007 76.47 C 23.737723678305983 73.62254845441441 18.233481709166295 72.76544901506743 13.049999999999997 74.1 L 12.520000000000001 74.19999999999999 C 12.520000000000001 74.19999999999999 12.44 74.17 12.32 74.11 Z" stroke-linecap="round" />
</g>
		<g transform="matrix(1 0 0 1 -3.08 5.21)"  >
<path style="stroke: none; stroke-width: 1; stroke-dasharray: none; stroke-linecap: butt; stroke-dashoffset: 0; stroke-linejoin: miter; stroke-miterlimit: 4; fill: rgb(11,0,244); fill-rule: nonzero; opacity: 1;" vector-effect="non-scaling-stroke"  transform=" translate(-56.95, -65.21)" d="M 111.05 73.07 C 105.92592539244404 75.24198497354473 100.55119264813841 76.76706538974145 95.05 77.60999999999999 C 90.22200638537863 78.26675905635814 85.31571248936099 78.06021390269555 80.56 77 C 75.08088333854178 75.67355873451855 69.72740897277743 73.8734529790303 64.55999999999999 71.62000000000002 C 58.56 69.16000000000001 52.56 66.54 46.400000000000006 64.55000000000001 C 41.887944440129914 63.028391491594746 37.21826533892793 62.02199513357707 32.48000000000003 61.55000000000001 C 25.841258410467592 60.98762304322317 19.1604710168974 61.90640208661293 12.920000000000009 64.24000000000001 C 9.770000000000005 65.4 6.720000000000005 66.85000000000001 3.630000000000006 68.16000000000001 C 3.380000000000006 68.27000000000001 3.140000000000006 68.4 2.840000000000006 68.54 C 2.840000000000006 68.42 2.840000000000006 68.35000000000001 2.910000000000006 68.32000000000001 C 6.370149627526764 64.53082704418124 10.275063333206377 61.17320562915146 14.539999999999973 58.32000000000002 C 21.15472675419773 53.994105589953385 29.00691849485443 51.959913635662446 36.89 52.53 C 41.85587135500782 52.901031292396056 46.7408422960138 53.99593857227671 51.38999999999999 55.78 C 57.470000000000006 58.080000000000005 63.480000000000004 60.57000000000001 69.48 63.07000000000001 C 76.73 66.07000000000001 84.01 69.07000000000001 91.68 70.86000000000001 C 95.94730990163251 71.89229626502967 100.29761925833286 72.54484266853473 104.68 72.81000000000003 C 106.82 73 109 73 111.05 73.07 Z" stroke-linecap="round" />
</g>
		<g transform="matrix(1 0 0 1 3.75 -7.52)"  >
<path style="stroke: none; stroke-width: 1; stroke-dasharray: none; stroke-linecap: butt; stroke-dashoffset: 0; stroke-linejoin: miter; stroke-miterlimit: 4; fill: rgb(11,0,244); fill-rule: nonzero; opacity: 1;" vector-effect="non-scaling-stroke"  transform=" translate(-63.77, -52.48)" d="M 117.21 61.74 C 115.41999999999999 62.31 113.52 62.95 111.6 63.53 C 108.19086964029513 64.59775841766286 104.68336317041985 65.32137006760848 101.13 65.69 C 96.92941041366022 66.10607338192285 92.6898097456587 65.87335067222348 88.56 65 C 83.80279083472956 63.92316039307553 79.16359633428517 62.37899529220559 74.71000000000001 60.39 C 69.95 58.39 65.25 56.2 60.50000000000001 54.14 C 55.05316558793575 51.65279921539254 49.353375783109044 49.76181012720297 43.500000000000014 48.5 C 36.521656827643284 47.13669644180169 29.317222276906406 47.479764753741534 22.500000000000004 49.49999999999999 C 18.73126747468887 50.62463612994761 15.053911417199771 52.03540363563889 11.5 53.72000000000001 C 11.170000000000007 53.879999999999995 10.840000000000007 54 10.330000000000007 54.21 C 10.425799206846442 54.07099444328973 10.529293991617886 53.93745278552012 10.640000000000006 53.81 C 13.37974400864995 50.897164596484515 16.393657847200572 48.254966798021805 19.639999999999986 45.920000000000016 C 24.882099344614833 42.12635896463848 31.03960342606605 39.79658583964992 37.480000000000004 39.169999999999995 C 41.969127135948455 38.842649249431005 46.48139116882254 39.26852585478091 50.829999999999984 40.429999999999986 C 56.588009728732 42.03284561643594 62.201102636849065 44.11684852570703 67.61000000000006 46.65999999999999 C 74.42000000000002 49.66 81.19000000000001 52.76 88.06000000000002 55.599999999999994 C 94.36747817564356 58.236422480578106 100.99985119818163 60.0155935398695 107.78 60.889999999999986 C 110.88 61.29 114.08 61.47 117.21 61.74 Z" stroke-linecap="round" />
</g>
		<g transform="matrix(1 0 0 1 6.15 -21.93)"  >
<path style="stroke: none; stroke-width: 1; stroke-dasharray: none; stroke-linecap: butt; stroke-dashoffset: 0; stroke-linejoin: miter; stroke-miterlimit: 4; fill: rgb(11,0,244); fill-rule: nonzero; opacity: 1;" vector-effect="non-scaling-stroke"  transform=" translate(-66.18, -38.07)" d="M 107.68 50.06 C 105.91577450983591 50.80804123763728 104.05355524420932 51.299694063643585 102.15 51.52 C 96.9902601200975 52.02918253891988 91.78677366795372 51.18835426453373 87.05000000000001 49.08 C 81.65 46.870000000000005 76.36000000000001 44.38 71.05000000000001 41.95 C 65.42915152891794 39.21466492363718 59.55895094851726 37.02464143271761 53.51999999999995 35.41000000000001 C 44.100261666956484 32.985793577096764 34.13870645060036 33.80300744208779 25.239999999999974 37.73000000000002 C 25.06347567856458 37.81926333111537 24.859369123715215 37.83716741487409 24.67000000000001 37.78 C 25.93000000000001 36.78 27.19000000000001 35.78 28.47000000000001 34.870000000000005 C 33.74977018222516 30.826639097777207 39.75937991518886 27.83881052997603 46.16999999999998 26.07 C 56.62057774243796 23.09071785252123 67.82281966898799 24.32942729632245 77.37 29.520000000000014 C 80.90862581709132 31.578721299363632 84.1487151122102 34.11224906595191 86.99999999999997 37.04999999999997 C 89.68 39.61 92.31 42.23 95.09 44.69 C 97.8682965108268 47.21147208746162 101.27411977688503 48.93856299317067 104.95000000000002 49.69 C 105.81 49.86 106.65 49.92 107.68 50.06 Z" stroke-linecap="round" />
</g>
</g>
</g>
<g transform="matrix(1 0 0 1 540 540)" style="" id="ce3656f3-ceb9-41a3-aa10-779c33b4ad49"  >
		<text xml:space="preserve" font-family="Raleway" font-size="34" font-style="normal" font-weight="900" style="stroke: none; stroke-width: 1; stroke-dasharray: none; stroke-linecap: butt; stroke-dashoffset: 0; stroke-linejoin: miter; stroke-miterlimit: 4; fill: rgb(255,255,255); fill-rule: nonzero; opacity: 1; white-space: pre;" ><tspan x="-44" y="10.68" >AIMH</tspan></text>
</g>
</svg>